<?xml version="1.0" encoding="utf-8"?>
<!-- Generator: Adobe Illustrator 16.0.4, SVG Export Plug-In . SVG Version: 6.00 Build 0)  -->
<!DOCTYPE svg PUBLIC "-//W3C//DTD SVG 1.1//EN" "http://www.w3.org/Graphics/SVG/1.1/DTD/svg11.dtd">
<svg version="1.1" id="Layer_1" xmlns="http://www.w3.org/2000/svg" xmlns:xlink="http://www.w3.org/1999/xlink" x="0px" y="0px"
	 width="200px" height="200px" viewBox="0 0 200 200" enable-background="new 0 0 200 200" xml:space="preserve">
<g>
	<g>
		<g>
			<path fill="none" stroke="#4EC1B8" stroke-width="2" stroke-miterlimit="10" d="M109.373,96.747"/>
			<path fill="none" stroke="#4EC1B8" stroke-width="2" stroke-miterlimit="10" d="M73.938,95.17v-6.29
				c0,4.343,15.865,7.867,35.435,7.867c19.57,0,35.436-3.523,35.436-7.867v6.291c0,4.345-15.865,7.867-35.436,7.867
				C89.802,103.038,73.938,99.515,73.938,95.17z"/>
			<path fill="none" stroke="#4EC1B8" stroke-width="2" stroke-miterlimit="10" d="M137.714,84.158
				c-6.465,1.91-16.752,3.144-28.341,3.144s-21.878-1.234-28.343-3.144c-4.453,1.314-7.092,2.95-7.092,4.722
				c0,4.343,15.865,7.867,35.435,7.867c19.57,0,35.436-3.523,35.436-7.867C144.809,87.107,142.167,85.472,137.714,84.158z"/>
		</g>
		<circle fill="none" stroke="#4EC1B8" stroke-width="2" stroke-miterlimit="10" cx="188.697" cy="26.561" r="10.271"/>
		<g>
			
				<ellipse fill="none" stroke="#4EC1B8" stroke-width="2" stroke-miterlimit="10" cx="109.373" cy="73.145" rx="35.436" ry="7.867"/>
			<path fill="none" stroke="#4EC1B8" stroke-width="2" stroke-miterlimit="10" d="M109.373,81.012"/>
			<path fill="none" stroke="#4EC1B8" stroke-width="2" stroke-miterlimit="10" d="M73.938,79.436v-6.291
				c0,4.345,15.865,7.867,35.435,7.867c19.57,0,35.436-3.522,35.436-7.867v6.291c0,4.344-15.865,7.866-35.436,7.866
				C89.802,87.302,73.938,83.78,73.938,79.436z"/>
		</g>
		<g>
			<path fill="none" stroke="#4EC1B8" stroke-width="2" stroke-miterlimit="10" d="M109.373,112.508"/>
			<path fill="none" stroke="#4EC1B8" stroke-width="2" stroke-miterlimit="10" d="M73.938,110.934v-6.291
				c0,4.344,15.865,7.865,35.435,7.865c19.57,0,35.436-3.521,35.436-7.865v6.291c0,4.344-15.865,7.865-35.436,7.865
				C89.802,118.799,73.938,115.277,73.938,110.934z"/>
			<path fill="none" stroke="#4EC1B8" stroke-width="2" stroke-miterlimit="10" d="M137.714,99.92
				c-6.465,1.909-16.752,3.145-28.341,3.145S87.495,101.83,81.03,99.92c-4.453,1.314-7.092,2.949-7.092,4.723
				c0,4.344,15.865,7.864,35.435,7.864c19.57,0,35.436-3.521,35.436-7.864C144.809,102.869,142.167,101.234,137.714,99.92z"/>
		</g>
		<circle fill="none" stroke="#4EC1B8" stroke-width="2" stroke-miterlimit="10" cx="11.305" cy="70.767" r="10.272"/>
		<circle fill="none" stroke="#4EC1B8" stroke-width="2" stroke-miterlimit="10" cx="154.657" cy="173.854" r="10.272"/>
		<g>
			<line fill="none" stroke="#4EC1B8" stroke-width="2" stroke-miterlimit="10" x1="23.975" y1="75.883" x2="61.765" y2="88.339"/>
			<g>
				<polyline fill="none" stroke="#4EC1B8" stroke-width="2" stroke-miterlimit="10" points="51.92,92.889 61.765,88.626 
					57.485,78.775 				"/>
			</g>
		</g>
		<g>
			
				<line fill="none" stroke="#4EC1B8" stroke-width="2" stroke-miterlimit="10" x1="148.892" y1="160.756" x2="127.685" y2="127.088"/>
			<g>
				<polyline fill="none" stroke="#4EC1B8" stroke-width="2" stroke-miterlimit="10" points="138.173,129.85 127.867,126.867 
					124.895,137.188 				"/>
			</g>
		</g>
		<g>
			
				<line fill="none" stroke="#4EC1B8" stroke-width="2" stroke-miterlimit="10" x1="148.892" y1="160.756" x2="127.685" y2="127.088"/>
			<g>
				<polyline fill="none" stroke="#4EC1B8" stroke-width="2" stroke-miterlimit="10" points="138.173,129.85 127.867,126.867 
					124.895,137.188 				"/>
			</g>
		</g>
		<g>
			
				<line fill="none" stroke="#4EC1B8" stroke-width="2" stroke-miterlimit="10" x1="178.962" y1="36.832" x2="150.004" y2="64.121"/>
			<g>
				<polyline fill="none" stroke="#4EC1B8" stroke-width="2" stroke-miterlimit="10" points="150.695,53.297 149.752,63.984 
					160.451,64.916 				"/>
			</g>
		</g>
	</g>
</g>
</svg>
